<?xml version="1.0" encoding="UTF-8" standalone="no"?>
<!DOCTYPE svg PUBLIC "-//W3C//DTD SVG 1.1//EN" "http://www.w3.org/Graphics/SVG/1.1/DTD/svg11.dtd">
<svg width="100%" height="100%" viewBox="0 0 3072 1280" version="1.1" xmlns="http://www.w3.org/2000/svg" xmlns:xlink="http://www.w3.org/1999/xlink" xml:space="preserve" xmlns:serif="http://www.serif.com/" style="fill-rule:evenodd;clip-rule:evenodd;stroke-linejoin:round;stroke-miterlimit:2;">
    <g transform="matrix(1,0,0,1,-10718,0)">
        <g id="padded-logo-horizontal_light" transform="matrix(3,0,0,1.25,-16444,0)">
            <rect x="9054" y="0" width="1024" height="1024" style="fill:white;"/>
            <g transform="matrix(0.291614,0,0,0.699873,7358.83,-3031.21)">
                <g transform="matrix(174.419,0,0,174.419,8184.12,5184)">
                    <path d="M0.076,-0L0.177,-0L0.177,-0.521L0.571,-0L0.672,-0L0.672,-0.687L0.571,-0.687L0.571,-0.166L0.177,-0.687L0.076,-0.687L0.076,-0Z" style="fill:rgb(28,28,30);fill-rule:nonzero;"/>
                </g>
                <g transform="matrix(174.419,0,0,174.419,8314.59,5184)">
                    <rect x="0.076" y="-0.687" width="0.101" height="0.687" style="fill:rgb(28,28,30);fill-rule:nonzero;"/>
                </g>
                <g transform="matrix(174.419,0,0,174.419,8358.54,5184)">
                    <path d="M0.269,-0L0.37,-0L0.37,-0.593L0.595,-0.593L0.595,-0.687L0.043,-0.687L0.043,-0.593L0.269,-0.593L0.269,-0Z" style="fill:rgb(28,28,30);fill-rule:nonzero;"/>
                </g>
                <g transform="matrix(174.419,0,0,174.419,8469.82,5184)">
                    <path d="M0.076,-0L0.177,-0L0.177,-0.489L0.418,-0.04L0.658,-0.489L0.658,-0L0.76,-0L0.76,-0.687L0.658,-0.687L0.418,-0.238L0.177,-0.687L0.076,-0.687L0.076,-0Z" style="fill:rgb(28,28,30);fill-rule:nonzero;"/>
                </g>
                <g transform="matrix(174.419,0,0,174.419,8615.46,5184)">
                    <path d="M0.106,-0.603C0.139,-0.603 0.165,-0.631 0.165,-0.663C0.165,-0.694 0.139,-0.722 0.106,-0.722C0.073,-0.722 0.046,-0.694 0.046,-0.663C0.046,-0.631 0.073,-0.603 0.106,-0.603ZM0.057,-0L0.155,-0L0.155,-0.517L0.057,-0.517L0.057,-0Z" style="fill:rgb(28,28,30);fill-rule:nonzero;"/>
                </g>
                <g transform="matrix(174.419,0,0,174.419,8652.44,5184)">
                    <path d="M0.304,0.012C0.381,0.012 0.448,-0.02 0.498,-0.071L0.431,-0.132C0.399,-0.096 0.353,-0.074 0.304,-0.074C0.21,-0.074 0.132,-0.158 0.132,-0.259C0.132,-0.359 0.21,-0.443 0.304,-0.443C0.352,-0.443 0.397,-0.422 0.428,-0.387L0.495,-0.449C0.446,-0.498 0.379,-0.529 0.305,-0.529C0.157,-0.529 0.032,-0.406 0.032,-0.259C0.032,-0.112 0.157,0.012 0.304,0.012Z" style="fill:rgb(28,28,30);fill-rule:nonzero;"/>
                </g>
            </g>
            <g transform="matrix(0.28673,0,0,0.688152,9201.15,-563.394)">
                <g transform="matrix(152.159,0,0,152.159,508.333,1679.17)">
                    <path d="M0.141,-0.72L0.141,-0.612L0.734,-0.612L0.734,-0.135L0.132,-0.135L0.132,-0.026L0.852,-0.026L0.852,-0.72L0.141,-0.72Z" style="fill:rgb(28,28,30);fill-rule:nonzero;"/>
                </g>
                <g transform="matrix(152.159,0,0,152.159,660.492,1679.17)">
                    <path d="M0.159,-0.749L0.105,-0.651C0.214,-0.615 0.319,-0.568 0.415,-0.504L0.475,-0.608C0.377,-0.67 0.269,-0.715 0.159,-0.749ZM0.149,0.023C0.329,0.008 0.509,-0.051 0.649,-0.167C0.796,-0.289 0.877,-0.451 0.937,-0.629L0.839,-0.699C0.726,-0.321 0.528,-0.129 0.126,-0.1L0.149,0.023Z" style="fill:rgb(28,28,30);fill-rule:nonzero;"/>
                </g>
                <g transform="matrix(152.159,0,0,152.159,812.651,1679.17)">
                    <path d="M0.273,-0.482L0.273,-0.777L0.158,-0.777L0.158,-0.143C0.158,-0.002 0.25,0.012 0.367,0.012L0.667,0.012C0.731,0.012 0.812,0.009 0.874,-0.001L0.867,-0.115C0.795,-0.101 0.718,-0.096 0.644,-0.096L0.386,-0.096C0.293,-0.096 0.273,-0.101 0.273,-0.168L0.273,-0.373C0.446,-0.412 0.607,-0.465 0.769,-0.539L0.717,-0.643C0.568,-0.565 0.435,-0.521 0.273,-0.482ZM0.869,-0.887C0.793,-0.887 0.731,-0.825 0.731,-0.749C0.731,-0.673 0.793,-0.611 0.869,-0.611C0.945,-0.611 1.007,-0.673 1.007,-0.749C1.007,-0.825 0.945,-0.887 0.869,-0.887ZM0.869,-0.823C0.91,-0.823 0.943,-0.79 0.943,-0.749C0.943,-0.708 0.91,-0.675 0.869,-0.675C0.828,-0.675 0.795,-0.708 0.795,-0.749C0.795,-0.79 0.828,-0.823 0.869,-0.823Z" style="fill:rgb(28,28,30);fill-rule:nonzero;"/>
                </g>
                <g transform="matrix(152.159,0,0,152.159,960.246,1679.17)">
                    <path d="M0.667,-0.105C0.695,-0.258 0.71,-0.413 0.717,-0.568L0.236,-0.568L0.236,-0.468L0.604,-0.468C0.595,-0.325 0.583,-0.244 0.558,-0.105L0.142,-0.105L0.142,-0.007L0.853,-0.007L0.853,-0.105L0.667,-0.105Z" style="fill:rgb(28,28,30);fill-rule:nonzero;"/>
                </g>
                <g transform="matrix(152.159,0,0,152.159,1106.32,1679.17)">
                    <rect x="0.071" y="-0.439" width="0.858" height="0.117" style="fill:rgb(28,28,30);fill-rule:nonzero;"/>
                </g>
                <g transform="matrix(152.159,0,0,152.159,1258.48,1679.17)">
                    <path d="M0.574,-0.28C0.464,-0.163 0.307,-0.088 0.152,-0.053L0.208,0.049C0.393,0.002 0.57,-0.093 0.692,-0.242C0.817,-0.394 0.863,-0.567 0.882,-0.759L0.348,-0.759C0.291,-0.629 0.205,-0.535 0.085,-0.46L0.158,-0.375C0.206,-0.405 0.239,-0.431 0.28,-0.47C0.39,-0.415 0.479,-0.359 0.574,-0.28ZM0.642,-0.363C0.553,-0.437 0.451,-0.495 0.346,-0.544C0.376,-0.582 0.399,-0.615 0.424,-0.656L0.75,-0.656C0.733,-0.547 0.703,-0.456 0.642,-0.363Z" style="fill:rgb(28,28,30);fill-rule:nonzero;"/>
                </g>
                <g transform="matrix(152.159,0,0,152.159,1410.64,1679.17)">
                    <path d="M0.234,-0.591C0.266,-0.673 0.286,-0.745 0.301,-0.832L0.199,-0.846C0.175,-0.707 0.122,-0.543 0.02,-0.441L0.067,-0.317C0.094,-0.345 0.112,-0.366 0.133,-0.399L0.133,0.078L0.234,0.078L0.234,-0.591ZM0.37,-0.816L0.37,-0.278L0.909,-0.278L0.909,-0.816L0.37,-0.816ZM0.467,-0.732L0.813,-0.732L0.813,-0.666L0.467,-0.666L0.467,-0.732ZM0.467,-0.589L0.813,-0.589L0.813,-0.517L0.467,-0.517L0.467,-0.589ZM0.467,-0.438L0.813,-0.438L0.813,-0.364L0.467,-0.364L0.467,-0.438ZM0.297,-0.214L0.297,-0.124L0.964,-0.124L0.964,-0.214L0.297,-0.214ZM0.575,-0.055L0.503,-0.122C0.443,-0.067 0.36,-0.028 0.281,-0.011L0.339,0.078C0.426,0.055 0.511,0.009 0.575,-0.055ZM0.909,0.078L0.971,-0.01C0.889,-0.029 0.817,-0.066 0.755,-0.122L0.686,-0.053C0.742,0.002 0.835,0.055 0.909,0.078Z" style="fill:rgb(28,28,30);fill-rule:nonzero;"/>
                </g>
                <g transform="matrix(152.159,0,0,152.159,1562.8,1679.17)">
                    <path d="M0.45,-0.362L0.45,-0.304L0.043,-0.304L0.043,-0.21L0.369,-0.21C0.275,-0.134 0.142,-0.067 0.028,-0.027L0.079,0.076C0.216,0.018 0.343,-0.059 0.45,-0.163L0.45,0.09L0.552,0.09L0.552,-0.176C0.652,-0.073 0.79,0.011 0.919,0.072L0.978,-0.026C0.863,-0.07 0.742,-0.134 0.645,-0.21L0.959,-0.21L0.959,-0.304L0.552,-0.304L0.552,-0.362L0.707,-0.362L0.707,-0.778L0.535,-0.778C0.546,-0.803 0.553,-0.822 0.56,-0.849L0.451,-0.849C0.443,-0.825 0.436,-0.8 0.424,-0.778L0.3,-0.778L0.3,-0.362L0.45,-0.362ZM0.615,-0.694L0.615,-0.611L0.394,-0.611L0.394,-0.694L0.615,-0.694ZM0.615,-0.533L0.615,-0.444L0.394,-0.444L0.394,-0.533L0.615,-0.533ZM0.097,-0.807L0.043,-0.73C0.109,-0.695 0.162,-0.66 0.216,-0.609L0.275,-0.689C0.217,-0.738 0.165,-0.774 0.097,-0.807ZM0.043,-0.337C0.138,-0.376 0.194,-0.407 0.281,-0.461L0.257,-0.56C0.183,-0.51 0.105,-0.473 0.021,-0.444L0.043,-0.337ZM0.959,-0.748L0.887,-0.812C0.842,-0.755 0.797,-0.712 0.74,-0.667L0.807,-0.597C0.857,-0.634 0.921,-0.7 0.959,-0.748ZM0.773,-0.572L0.717,-0.486C0.793,-0.444 0.86,-0.397 0.921,-0.334L0.989,-0.429C0.926,-0.486 0.851,-0.536 0.773,-0.572Z" style="fill:rgb(28,28,30);fill-rule:nonzero;"/>
                </g>
                <g transform="matrix(152.159,0,0,152.159,1714.95,1679.17)">
                    <path d="M0.049,-0.766L0.049,-0.675L0.124,-0.675C0.14,-0.613 0.149,-0.542 0.153,-0.477L0.031,-0.477L0.031,-0.386L0.566,-0.386L0.566,-0.477L0.444,-0.477C0.461,-0.54 0.476,-0.611 0.485,-0.675L0.548,-0.675L0.548,-0.766L0.349,-0.766L0.349,-0.849L0.248,-0.849L0.248,-0.766L0.049,-0.766ZM0.706,0.088L0.706,-0.734L0.839,-0.734C0.814,-0.651 0.768,-0.538 0.728,-0.461C0.809,-0.395 0.865,-0.305 0.865,-0.198C0.865,-0.146 0.851,-0.11 0.793,-0.11L0.728,-0.11L0.741,-0.008L0.812,-0.008C0.855,-0.008 0.89,-0.011 0.923,-0.043C0.959,-0.079 0.972,-0.135 0.972,-0.185C0.972,-0.298 0.919,-0.402 0.843,-0.483C0.894,-0.589 0.913,-0.63 0.957,-0.74L0.957,-0.825L0.604,-0.825L0.604,0.088L0.706,0.088ZM0.389,-0.675C0.379,-0.609 0.367,-0.542 0.349,-0.477L0.249,-0.477C0.242,-0.548 0.232,-0.606 0.217,-0.675L0.389,-0.675ZM0.532,-0.324L0.074,-0.324L0.074,0.071L0.532,0.071L0.532,-0.324ZM0.435,-0.233L0.435,-0.018L0.172,-0.018L0.172,-0.233L0.435,-0.233Z" style="fill:rgb(28,28,30);fill-rule:nonzero;"/>
                </g>
            </g>
            <g transform="matrix(0.146521,0,0,0.351649,9277.69,-122.04)">
                <g transform="matrix(152.159,0,0,152.159,508.333,1679.17)">
                    <path d="M0.418,-0.396C0.282,-0.324 0.174,-0.287 0.022,-0.261L0.057,-0.152C0.139,-0.172 0.205,-0.193 0.283,-0.222L0.283,0.064L0.928,0.064L0.928,-0.351L0.538,-0.351C0.675,-0.445 0.764,-0.531 0.854,-0.671L0.854,-0.766L0.48,-0.766C0.498,-0.789 0.514,-0.812 0.53,-0.837L0.414,-0.86C0.32,-0.72 0.201,-0.632 0.042,-0.578L0.09,-0.483C0.143,-0.504 0.181,-0.521 0.231,-0.55C0.305,-0.497 0.353,-0.459 0.418,-0.396ZM0.511,-0.452C0.444,-0.517 0.393,-0.555 0.315,-0.606C0.343,-0.626 0.368,-0.648 0.393,-0.671L0.726,-0.671C0.663,-0.576 0.602,-0.519 0.511,-0.452ZM0.825,-0.256L0.825,-0.032L0.386,-0.032L0.386,-0.256L0.825,-0.256Z" style="fill:rgb(28,28,30);fill-rule:nonzero;"/>
                </g>
                <g transform="matrix(152.159,0,0,152.159,660.492,1679.17)">
                    <path d="M0.031,-0.711L0.031,-0.607L0.445,-0.607L0.445,-0.432L0.131,-0.432L0.131,0.061L0.87,0.061L0.87,-0.432L0.555,-0.432L0.555,-0.607L0.971,-0.607L0.971,-0.711L0.555,-0.711L0.555,-0.851L0.445,-0.851L0.445,-0.711L0.031,-0.711ZM0.236,-0.334L0.765,-0.334L0.765,-0.038L0.236,-0.038L0.236,-0.334Z" style="fill:rgb(28,28,30);fill-rule:nonzero;"/>
                </g>
                <g transform="matrix(152.159,0,0,152.159,812.651,1679.17)">
                    <path d="M0.524,-0.273L0.524,-0.198L0.259,-0.198L0.259,-0.116L0.524,-0.116L0.524,-0.021L0.215,-0.021L0.215,0.064L0.967,0.064L0.967,-0.021L0.627,-0.021L0.627,-0.116L0.926,-0.116L0.926,-0.198L0.627,-0.198L0.627,-0.277C0.688,-0.281 0.749,-0.284 0.81,-0.292C0.826,-0.272 0.841,-0.252 0.856,-0.231L0.936,-0.292C0.893,-0.349 0.836,-0.402 0.785,-0.453L0.967,-0.453L0.967,-0.538L0.215,-0.538L0.215,-0.596L0.916,-0.596L0.916,-0.818L0.108,-0.818L0.108,-0.408C0.108,-0.24 0.104,-0.145 0.02,0.006L0.108,0.081C0.206,-0.081 0.215,-0.221 0.215,-0.405L0.215,-0.453L0.369,-0.453C0.352,-0.411 0.342,-0.395 0.319,-0.357C0.293,-0.357 0.266,-0.356 0.24,-0.357L0.254,-0.263C0.344,-0.266 0.434,-0.27 0.524,-0.273ZM0.814,-0.743L0.814,-0.673L0.215,-0.673L0.215,-0.743L0.814,-0.743ZM0.748,-0.365C0.641,-0.356 0.534,-0.357 0.427,-0.357C0.449,-0.388 0.468,-0.421 0.487,-0.453L0.751,-0.453L0.693,-0.418C0.715,-0.399 0.728,-0.387 0.748,-0.365Z" style="fill:rgb(28,28,30);fill-rule:nonzero;"/>
                </g>
                <g transform="matrix(152.159,0,0,152.159,964.811,1679.17)">
                    <path d="M0.073,-0.788L0.073,-0.682L0.444,-0.682L0.444,-0.067L0.033,-0.067L0.033,0.039L0.966,0.039L0.966,-0.067L0.554,-0.067L0.554,-0.682L0.935,-0.682L0.935,-0.788L0.073,-0.788Z" style="fill:rgb(28,28,30);fill-rule:nonzero;"/>
                </g>
                <g transform="matrix(152.159,0,0,152.159,1116.97,1679.17)">
                    <path d="M0.626,-0.172L0.964,-0.172L0.964,-0.255L0.549,-0.255L0.549,-0.315L0.901,-0.315L0.901,-0.392L0.549,-0.392L0.549,-0.452L0.924,-0.452L0.924,-0.534L0.709,-0.534C0.719,-0.56 0.727,-0.586 0.737,-0.612L0.964,-0.612L0.964,-0.698L0.81,-0.698C0.832,-0.737 0.85,-0.78 0.865,-0.822L0.761,-0.852C0.749,-0.806 0.725,-0.74 0.706,-0.698L0.641,-0.698L0.641,-0.845L0.543,-0.845L0.543,-0.698L0.456,-0.698L0.456,-0.845L0.358,-0.845L0.358,-0.698L0.297,-0.698C0.28,-0.754 0.264,-0.799 0.237,-0.852L0.133,-0.822C0.154,-0.779 0.172,-0.743 0.191,-0.698L0.034,-0.698L0.034,-0.612L0.259,-0.612C0.268,-0.596 0.282,-0.552 0.286,-0.534L0.083,-0.534L0.083,-0.452L0.448,-0.452L0.448,-0.392L0.104,-0.392L0.104,-0.315L0.448,-0.315L0.448,-0.255L0.034,-0.255L0.034,-0.172L0.373,-0.172C0.269,-0.099 0.156,-0.054 0.035,-0.017L0.087,0.072C0.224,0.025 0.338,-0.027 0.448,-0.124L0.448,0.085L0.549,0.085L0.549,-0.125C0.66,-0.024 0.769,0.026 0.911,0.073L0.968,-0.018C0.836,-0.051 0.736,-0.09 0.626,-0.172ZM0.627,-0.612C0.621,-0.584 0.614,-0.56 0.603,-0.534L0.393,-0.534C0.382,-0.564 0.379,-0.577 0.365,-0.612L0.627,-0.612Z" style="fill:rgb(28,28,30);fill-rule:nonzero;"/>
                </g>
                <g transform="matrix(152.159,0,0,152.159,1269.13,1679.17)">
                    <path d="M0.429,-0.506C0.41,-0.415 0.372,-0.33 0.318,-0.255C0.238,-0.144 0.141,-0.07 0.013,-0.022L0.083,0.082C0.279,0.012 0.428,-0.169 0.501,-0.359C0.565,-0.138 0.713,-0.004 0.918,0.088L0.989,-0.022C0.872,-0.054 0.78,-0.109 0.703,-0.204C0.629,-0.295 0.591,-0.391 0.569,-0.506L0.965,-0.506L0.965,-0.612L0.55,-0.612L0.55,-0.851L0.439,-0.851L0.439,-0.612L0.033,-0.612L0.033,-0.506L0.429,-0.506Z" style="fill:rgb(28,28,30);fill-rule:nonzero;"/>
                </g>
                <g transform="matrix(152.159,0,0,152.159,1421.29,1679.17)">
                    <path d="M0.184,-0.689L0.054,-0.689L0.054,-0.46L0.155,-0.46L0.155,-0.594L0.85,-0.594L0.85,-0.46L0.951,-0.46L0.951,-0.689L0.824,-0.689C0.851,-0.736 0.868,-0.769 0.89,-0.819L0.775,-0.853C0.755,-0.797 0.736,-0.742 0.709,-0.689L0.547,-0.689L0.58,-0.7C0.566,-0.746 0.53,-0.816 0.504,-0.856L0.405,-0.818C0.433,-0.775 0.453,-0.736 0.473,-0.689L0.273,-0.689L0.296,-0.698C0.28,-0.748 0.251,-0.805 0.221,-0.848L0.124,-0.812C0.146,-0.773 0.167,-0.732 0.184,-0.689ZM0.809,-0.519L0.193,-0.519L0.193,-0.425L0.638,-0.425C0.6,-0.391 0.538,-0.361 0.49,-0.346L0.446,-0.346L0.446,-0.268L0.027,-0.268L0.027,-0.17L0.446,-0.17L0.446,-0.046C0.446,-0.027 0.445,-0.014 0.418,-0.014L0.257,-0.014L0.276,0.092L0.472,0.092C0.5,0.092 0.554,0.069 0.554,0.009L0.554,-0.17L0.974,-0.17L0.974,-0.268L0.554,-0.268L0.554,-0.276C0.63,-0.307 0.748,-0.381 0.809,-0.436L0.809,-0.519Z" style="fill:rgb(28,28,30);fill-rule:nonzero;"/>
                </g>
                <g transform="matrix(152.159,0,0,152.159,1573.45,1679.17)">
                    <path d="M0.782,-0.018C0.801,0.016 0.82,0.05 0.839,0.085L0.943,0.028C0.884,-0.086 0.757,-0.264 0.669,-0.358L0.578,-0.302C0.63,-0.24 0.681,-0.176 0.727,-0.108C0.589,-0.091 0.451,-0.083 0.312,-0.076C0.394,-0.236 0.447,-0.372 0.505,-0.543L0.389,-0.57C0.353,-0.419 0.267,-0.209 0.196,-0.069C0.152,-0.067 0.108,-0.064 0.064,-0.063L0.077,0.044C0.208,0.036 0.338,0.026 0.469,0.016C0.573,0.007 0.678,-0.001 0.782,-0.018ZM0.397,-0.82L0.293,-0.852C0.238,-0.709 0.15,-0.597 0.02,-0.515L0.1,-0.421C0.23,-0.525 0.338,-0.663 0.397,-0.82ZM0.904,-0.406L0.978,-0.505C0.854,-0.598 0.748,-0.705 0.693,-0.852L0.595,-0.81C0.65,-0.65 0.775,-0.512 0.904,-0.406Z" style="fill:rgb(28,28,30);fill-rule:nonzero;"/>
                </g>
                <g transform="matrix(152.159,0,0,152.159,1725.61,1679.17)">
                    <path d="M0.633,-0.544C0.672,-0.526 0.696,-0.513 0.732,-0.49L0.775,-0.573C0.738,-0.598 0.712,-0.61 0.671,-0.628C0.684,-0.665 0.69,-0.691 0.696,-0.73L0.847,-0.73C0.846,-0.665 0.847,-0.582 0.833,-0.519C0.828,-0.495 0.82,-0.477 0.793,-0.477L0.701,-0.477L0.716,-0.379L0.815,-0.379C0.852,-0.379 0.876,-0.388 0.896,-0.42C0.933,-0.478 0.935,-0.638 0.935,-0.733L0.935,-0.816L0.438,-0.816L0.438,-0.73L0.595,-0.73C0.592,-0.703 0.589,-0.687 0.582,-0.662C0.544,-0.673 0.511,-0.683 0.472,-0.691L0.438,-0.614C0.474,-0.603 0.51,-0.593 0.546,-0.58C0.506,-0.517 0.448,-0.476 0.383,-0.443L0.446,-0.36C0.53,-0.411 0.582,-0.46 0.633,-0.544ZM0.06,-0.816L0.06,-0.727L0.372,-0.727L0.372,-0.816L0.06,-0.816ZM0.029,-0.676L0.029,-0.585L0.406,-0.585L0.406,-0.676L0.029,-0.676ZM0.06,-0.532L0.06,-0.443L0.372,-0.443L0.372,-0.532L0.06,-0.532ZM0.615,-0.416L0.557,-0.345C0.619,-0.31 0.677,-0.268 0.729,-0.219L0.782,-0.291C0.731,-0.341 0.677,-0.382 0.615,-0.416ZM0.06,-0.382L0.06,-0.293L0.372,-0.293L0.372,-0.382L0.06,-0.382ZM0.979,0.01C0.965,-0.086 0.938,-0.184 0.896,-0.273L0.809,-0.249C0.847,-0.152 0.87,-0.063 0.884,0.04L0.979,0.01ZM0.372,-0.036L0.372,-0.234L0.06,-0.234L0.06,0.071L0.372,0.071L0.372,-0.006L0.443,0.04C0.487,-0.045 0.512,-0.154 0.52,-0.249L0.428,-0.256C0.421,-0.179 0.408,-0.105 0.372,-0.036ZM0.549,-0.249L0.549,0.009C0.549,0.047 0.577,0.081 0.63,0.081L0.748,0.081C0.827,0.081 0.832,-0.027 0.838,-0.083L0.748,-0.111C0.744,-0.053 0.741,-0.009 0.712,-0.009L0.662,-0.009C0.643,-0.009 0.643,-0.03 0.643,-0.038L0.643,-0.249L0.549,-0.249ZM0.284,-0.148L0.284,-0.015L0.149,-0.015L0.149,-0.148L0.284,-0.148Z" style="fill:rgb(28,28,30);fill-rule:nonzero;"/>
                </g>
                <g transform="matrix(152.159,0,0,152.159,1877.77,1679.17)">
                    <path d="M0.343,-0.041L0.343,-0.236L0.057,-0.236L0.057,0.072L0.343,0.072L0.343,-0.019L0.388,0.046C0.483,-0.012 0.561,-0.081 0.626,-0.172L0.626,0.089L0.719,0.089L0.719,-0.169C0.78,-0.075 0.841,-0.016 0.934,0.046L0.987,-0.05C0.89,-0.1 0.825,-0.163 0.758,-0.248L0.971,-0.248L0.971,-0.338L0.719,-0.338L0.719,-0.412L0.941,-0.412L0.941,-0.816L0.411,-0.816L0.411,-0.412L0.626,-0.412L0.626,-0.338L0.377,-0.338L0.377,-0.248L0.583,-0.248C0.512,-0.156 0.445,-0.097 0.343,-0.041ZM0.057,-0.816L0.057,-0.725L0.343,-0.725L0.343,-0.816L0.057,-0.816ZM0.626,-0.734L0.626,-0.65L0.501,-0.65L0.501,-0.734L0.626,-0.734ZM0.851,-0.734L0.851,-0.65L0.719,-0.65L0.719,-0.734L0.851,-0.734ZM0.026,-0.676L0.026,-0.585L0.365,-0.585L0.365,-0.676L0.026,-0.676ZM0.851,-0.579L0.851,-0.495L0.719,-0.495L0.719,-0.579L0.851,-0.579ZM0.626,-0.579L0.626,-0.495L0.501,-0.495L0.501,-0.579L0.626,-0.579ZM0.057,-0.534L0.057,-0.444L0.343,-0.444L0.343,-0.534L0.057,-0.534ZM0.057,-0.388L0.057,-0.298L0.343,-0.298L0.343,-0.388L0.057,-0.388ZM0.252,-0.149L0.252,-0.017L0.148,-0.017L0.148,-0.149L0.252,-0.149Z" style="fill:rgb(28,28,30);fill-rule:nonzero;"/>
                </g>
                <g transform="matrix(152.159,0,0,152.159,2029.92,1679.17)">
                    <path d="M0.329,-0.272C0.25,-0.153 0.144,-0.068 0.024,0.006L0.098,0.096C0.411,-0.118 0.536,-0.352 0.57,-0.726L0.285,-0.726C0.295,-0.766 0.303,-0.804 0.309,-0.845L0.208,-0.85C0.176,-0.677 0.131,-0.562 0.008,-0.432L0.077,-0.35C0.11,-0.382 0.132,-0.407 0.157,-0.445C0.224,-0.391 0.277,-0.34 0.329,-0.272ZM0.381,-0.362C0.315,-0.431 0.285,-0.468 0.206,-0.526C0.223,-0.559 0.239,-0.592 0.252,-0.627L0.458,-0.627C0.443,-0.532 0.424,-0.449 0.381,-0.362ZM0.71,-0.479C0.678,-0.514 0.657,-0.544 0.632,-0.584L0.554,-0.529C0.599,-0.452 0.645,-0.398 0.71,-0.338L0.71,0.087L0.817,0.087L0.817,-0.251C0.863,-0.219 0.903,-0.196 0.954,-0.172L0.987,-0.29C0.925,-0.317 0.873,-0.344 0.817,-0.384L0.817,-0.85L0.71,-0.85L0.71,-0.479Z" style="fill:rgb(28,28,30);fill-rule:nonzero;"/>
                </g>
                <g transform="matrix(152.159,0,0,152.159,2182.08,1679.17)">
                    <path d="M0.692,-0.714C0.78,-0.723 0.854,-0.736 0.94,-0.758L0.904,-0.852C0.733,-0.804 0.547,-0.796 0.371,-0.796L0.323,-0.796L0.34,-0.699C0.423,-0.7 0.507,-0.702 0.59,-0.707L0.59,-0.588L0.307,-0.588L0.307,-0.493L0.59,-0.493L0.59,-0.348L0.357,-0.348L0.357,0.068L0.925,0.068L0.925,-0.348L0.692,-0.348L0.692,-0.493L0.971,-0.493L0.971,-0.588L0.692,-0.588L0.692,-0.714ZM0.824,-0.258L0.824,-0.022L0.459,-0.022L0.459,-0.258L0.824,-0.258ZM0.122,-0.848L0.064,-0.764C0.12,-0.736 0.183,-0.7 0.231,-0.661L0.293,-0.749C0.239,-0.788 0.182,-0.822 0.122,-0.848ZM0.077,-0.574L0.026,-0.484C0.088,-0.457 0.133,-0.424 0.186,-0.384L0.246,-0.473C0.203,-0.514 0.133,-0.554 0.077,-0.574ZM0.287,-0.261L0.204,-0.325C0.159,-0.221 0.097,-0.111 0.023,-0.025L0.084,0.082C0.16,-0 0.245,-0.156 0.287,-0.261Z" style="fill:rgb(28,28,30);fill-rule:nonzero;"/>
                </g>
                <g transform="matrix(152.159,0,0,152.159,2334.24,1679.17)">
                    <path d="M0.508,0.031L0.587,0.085C0.66,-0 0.708,-0.099 0.732,-0.208C0.756,-0.321 0.767,-0.436 0.769,-0.551L0.844,-0.551C0.844,-0.467 0.835,-0.126 0.822,-0.062C0.816,-0.031 0.809,-0.017 0.772,-0.017L0.69,-0.017L0.707,0.085L0.802,0.085C0.841,0.085 0.875,0.083 0.897,0.044C0.922,0.001 0.927,-0.067 0.931,-0.117C0.935,-0.17 0.938,-0.222 0.939,-0.275C0.941,-0.401 0.945,-0.526 0.946,-0.652L0.769,-0.652L0.769,-0.851L0.668,-0.851L0.668,-0.652L0.587,-0.652L0.587,-0.551L0.668,-0.551C0.666,-0.484 0.662,-0.416 0.653,-0.349C0.639,-0.237 0.616,-0.153 0.557,-0.056C0.486,-0.049 0.415,-0.043 0.344,-0.038L0.344,-0.093L0.558,-0.093L0.558,-0.174L0.344,-0.174L0.344,-0.22L0.546,-0.22L0.546,-0.572L0.344,-0.572L0.344,-0.617L0.569,-0.617L0.569,-0.698L0.344,-0.698L0.344,-0.746C0.416,-0.75 0.474,-0.756 0.545,-0.773L0.512,-0.851C0.345,-0.816 0.207,-0.816 0.039,-0.815L0.051,-0.737C0.118,-0.737 0.186,-0.738 0.254,-0.741L0.254,-0.698L0.028,-0.698L0.028,-0.617L0.254,-0.617L0.254,-0.572L0.057,-0.572L0.057,-0.22L0.254,-0.22L0.254,-0.174L0.051,-0.174L0.051,-0.093L0.254,-0.093L0.254,-0.033C0.179,-0.029 0.104,-0.027 0.028,-0.027L0.038,0.065C0.195,0.059 0.352,0.049 0.508,0.031ZM0.254,-0.498L0.254,-0.433L0.145,-0.433L0.145,-0.498L0.254,-0.498ZM0.458,-0.498L0.458,-0.433L0.344,-0.433L0.344,-0.498L0.458,-0.498ZM0.254,-0.365L0.254,-0.296L0.145,-0.296L0.145,-0.365L0.254,-0.365ZM0.458,-0.365L0.458,-0.296L0.344,-0.296L0.344,-0.365L0.458,-0.365Z" style="fill:rgb(28,28,30);fill-rule:nonzero;"/>
                </g>
                <g transform="matrix(152.159,0,0,152.159,2486.4,1679.17)">
                    <path d="M0.685,-0.482L0.784,-0.482L0.784,-0.573L0.685,-0.573L0.685,-0.684L0.586,-0.684L0.586,-0.573L0.218,-0.573L0.218,-0.482L0.586,-0.482L0.586,-0.192C0.586,-0.173 0.578,-0.168 0.558,-0.168L0.438,-0.168L0.454,-0.068L0.584,-0.068C0.639,-0.068 0.685,-0.095 0.685,-0.155L0.685,-0.482ZM0.248,-0.389C0.296,-0.334 0.34,-0.255 0.371,-0.189L0.458,-0.243C0.423,-0.315 0.38,-0.377 0.331,-0.439L0.248,-0.389ZM0.069,-0.815L0.069,0.064L0.93,0.064L0.93,-0.815L0.069,-0.815ZM0.173,-0.718L0.827,-0.718L0.827,-0.034L0.173,-0.034L0.173,-0.718Z" style="fill:rgb(28,28,30);fill-rule:nonzero;"/>
                </g>
                <g transform="matrix(152.159,0,0,152.159,2638.56,1679.17)">
                    <path d="M0.543,-0.577C0.487,-0.431 0.388,-0.27 0.265,-0.171L0.322,-0.062C0.436,-0.171 0.518,-0.309 0.574,-0.456L0.574,-0.171L0.439,-0.171L0.439,-0.072L0.574,-0.072L0.574,0.089L0.684,0.089L0.684,-0.072L0.822,-0.072L0.822,-0.171L0.684,-0.171L0.684,-0.446C0.746,-0.295 0.824,-0.186 0.938,-0.07L0.99,-0.186C0.868,-0.277 0.771,-0.438 0.713,-0.577L0.974,-0.577L0.974,-0.678L0.684,-0.678L0.684,-0.847L0.574,-0.847L0.574,-0.678L0.295,-0.678L0.295,-0.577L0.543,-0.577ZM0.133,-0.401L0.133,0.089L0.235,0.089L0.235,-0.589C0.269,-0.672 0.291,-0.747 0.302,-0.836L0.198,-0.851C0.185,-0.705 0.117,-0.545 0.016,-0.438L0.06,-0.315C0.09,-0.344 0.11,-0.368 0.133,-0.401Z" style="fill:rgb(28,28,30);fill-rule:nonzero;"/>
                </g>
            </g>
            <g transform="matrix(0.133333,0,0,0.32,8769.47,348.16)">
                <path d="M3734,192C4054,192 4054,192 4054,512C4054,832 4054,832 3734,832C3414,832 3414,832 3414,512C3414,192 3414,192 3734,192Z" style="fill:none;"/>
                <clipPath id="_clip1">
                    <path d="M3734,192C4054,192 4054,192 4054,512C4054,832 4054,832 3734,832C3414,832 3414,832 3414,512C3414,192 3414,192 3734,192Z"/>
                </clipPath>
                <g clip-path="url(#_clip1)">
                    <g transform="matrix(0.988355,0,0,1.21614,1291.01,192)">
                        <rect x="2148" y="0" width="647.541" height="526.254" style="fill:none;"/>
                        <clipPath id="_clip2">
                            <rect x="2148" y="0" width="647.541" height="526.254"/>
                        </clipPath>
                        <g clip-path="url(#_clip2)">
                            <g transform="matrix(2.9374,-0.988818,1.21671,2.38722,-13519.7,4648.87)">
                                <circle cx="5288.05" cy="360.097" r="381.874" style="fill:none;"/>
                                <clipPath id="_clip3">
                                    <circle cx="5288.05" cy="360.097" r="381.874"/>
                                </clipPath>
                                <g clip-path="url(#_clip3)">
                                    <g transform="matrix(-0.166667,-0.288675,0.288675,-0.166667,5931.79,2023.81)">
                                        <circle cx="5288.05" cy="360.097" r="381.874" style="fill:rgb(0,122,255);"/>
                                    </g>
                                    <g transform="matrix(-0.166667,0.288675,-0.288675,-0.166667,6407,-1029.25)">
                                        <circle cx="5288.05" cy="360.097" r="381.874" style="fill:rgb(52,199,89);"/>
                                    </g>
                                    <g transform="matrix(0.333333,2.77556e-17,1.38778e-17,0.333333,3525.37,85.7319)">
                                        <circle cx="5288.05" cy="360.097" r="381.874" style="fill:rgb(255,59,48);"/>
                                    </g>
                                </g>
                            </g>
                        </g>
                    </g>
                </g>
            </g>
        </g>
    </g>
</svg>
