<?xml version="1.0" encoding="UTF-8" standalone="no"?>
<!DOCTYPE svg PUBLIC "-//W3C//DTD SVG 1.1//EN" "http://www.w3.org/Graphics/SVG/1.1/DTD/svg11.dtd">
<svg width="100%" height="100%" viewBox="0 0 2304 1280" version="1.1" xmlns="http://www.w3.org/2000/svg" xmlns:xlink="http://www.w3.org/1999/xlink" xml:space="preserve" xmlns:serif="http://www.serif.com/" style="fill-rule:evenodd;clip-rule:evenodd;stroke-linejoin:round;stroke-miterlimit:2;">
    <g transform="matrix(1,0,0,1,-8364,-1714)">
        <g id="padded-logo-short_dark" transform="matrix(2.25,0,0,1.25,-3718.5,1714)">
            <rect x="5370" y="0" width="1024" height="1024" style="fill:rgb(28,28,30);"/>
            <g transform="matrix(0.177778,0,0,0.32,4990.62,348.16)">
                <path d="M3734,192C4054,192 4054,192 4054,512C4054,832 4054,832 3734,832C3414,832 3414,832 3414,512C3414,192 3414,192 3734,192Z" style="fill:none;"/>
                <clipPath id="_clip1">
                    <path d="M3734,192C4054,192 4054,192 4054,512C4054,832 4054,832 3734,832C3414,832 3414,832 3414,512C3414,192 3414,192 3734,192Z"/>
                </clipPath>
                <g clip-path="url(#_clip1)">
                    <g transform="matrix(0.988355,0,0,1.21614,1291.01,192)">
                        <rect x="2148" y="0" width="647.541" height="526.254" style="fill:none;"/>
                        <clipPath id="_clip2">
                            <rect x="2148" y="0" width="647.541" height="526.254"/>
                        </clipPath>
                        <g clip-path="url(#_clip2)">
                            <g transform="matrix(2.9374,-0.988818,1.21671,2.38722,-13519.7,4648.87)">
                                <circle cx="5288.05" cy="360.097" r="381.874" style="fill:none;"/>
                                <clipPath id="_clip3">
                                    <circle cx="5288.05" cy="360.097" r="381.874"/>
                                </clipPath>
                                <g clip-path="url(#_clip3)">
                                    <g transform="matrix(-0.164583,-0.285067,0.285067,-0.164583,5922.07,2003.98)">
                                        <circle cx="5288.05" cy="360.097" r="381.874" style="fill:rgb(10,132,255);"/>
                                    </g>
                                    <g transform="matrix(-0.164583,0.285067,-0.285067,-0.164583,6394.68,-1010.92)">
                                        <circle cx="5288.05" cy="360.097" r="381.874" style="fill:rgb(48,209,88);"/>
                                    </g>
                                    <g transform="matrix(0.329167,-2.81025e-17,1.37043e-17,0.329167,3547.4,87.2323)">
                                        <circle cx="5288.05" cy="360.097" r="381.874" style="fill:rgb(255,69,58);"/>
                                    </g>
                                </g>
                            </g>
                        </g>
                    </g>
                </g>
            </g>
            <g transform="matrix(0.734838,0,0,1.32271,-255.52,-6261.42)">
                <g transform="matrix(174.419,0,0,174.419,8184.12,5184)">
                    <path d="M0.076,-0L0.177,-0L0.177,-0.521L0.571,-0L0.672,-0L0.672,-0.687L0.571,-0.687L0.571,-0.166L0.177,-0.687L0.076,-0.687L0.076,-0Z" style="fill:white;fill-rule:nonzero;"/>
                </g>
                <g transform="matrix(174.419,0,0,174.419,8314.59,5184)">
                    <rect x="0.076" y="-0.687" width="0.101" height="0.687" style="fill:white;fill-rule:nonzero;"/>
                </g>
                <g transform="matrix(174.419,0,0,174.419,8358.54,5184)">
                    <path d="M0.269,-0L0.37,-0L0.37,-0.593L0.595,-0.593L0.595,-0.687L0.043,-0.687L0.043,-0.593L0.269,-0.593L0.269,-0Z" style="fill:white;fill-rule:nonzero;"/>
                </g>
                <g transform="matrix(174.419,0,0,174.419,8469.82,5184)">
                    <path d="M0.076,-0L0.177,-0L0.177,-0.489L0.418,-0.04L0.658,-0.489L0.658,-0L0.76,-0L0.76,-0.687L0.658,-0.687L0.418,-0.238L0.177,-0.687L0.076,-0.687L0.076,-0Z" style="fill:white;fill-rule:nonzero;"/>
                </g>
                <g transform="matrix(174.419,0,0,174.419,8615.46,5184)">
                    <path d="M0.106,-0.603C0.139,-0.603 0.165,-0.631 0.165,-0.663C0.165,-0.694 0.139,-0.722 0.106,-0.722C0.073,-0.722 0.046,-0.694 0.046,-0.663C0.046,-0.631 0.073,-0.603 0.106,-0.603ZM0.057,-0L0.155,-0L0.155,-0.517L0.057,-0.517L0.057,-0Z" style="fill:white;fill-rule:nonzero;"/>
                </g>
                <g transform="matrix(174.419,0,0,174.419,8652.44,5184)">
                    <path d="M0.304,0.012C0.381,0.012 0.448,-0.02 0.498,-0.071L0.431,-0.132C0.399,-0.096 0.353,-0.074 0.304,-0.074C0.21,-0.074 0.132,-0.158 0.132,-0.259C0.132,-0.359 0.21,-0.443 0.304,-0.443C0.352,-0.443 0.397,-0.422 0.428,-0.387L0.495,-0.449C0.446,-0.498 0.379,-0.529 0.305,-0.529C0.157,-0.529 0.032,-0.406 0.032,-0.259C0.032,-0.112 0.157,0.012 0.304,0.012Z" style="fill:white;fill-rule:nonzero;"/>
                </g>
            </g>
        </g>
    </g>
</svg>
